<?xml version="1.0" encoding="utf-8"?>
<!-- Generator: Adobe Illustrator 16.0.0, SVG Export Plug-In . SVG Version: 6.00 Build 0)  -->
<!DOCTYPE svg PUBLIC "-//W3C//DTD SVG 1.1//EN" "http://www.w3.org/Graphics/SVG/1.1/DTD/svg11.dtd">
<svg version="1.1" id="Layer_1" xmlns="http://www.w3.org/2000/svg" xmlns:xlink="http://www.w3.org/1999/xlink" x="0px" y="0px"
	 width="300px" height="300px" viewBox="0 0 300 300" enable-background="new 0 0 300 300" xml:space="preserve">
<circle opacity="0.33" enable-background="new    " cx="150.484" cy="151.6" r="142.104"/>
<g>
	<path fill="#002156" d="M149.205,289.716c-5.334,0-10.738-0.303-16.061-0.901C55.018,280.051-1.414,209.36,7.35,131.234
		C15.451,59.006,76.292,4.538,148.871,4.538c5.328,0,10.731,0.303,16.06,0.9c78.127,8.765,134.559,79.455,125.795,157.582
		C282.624,235.248,221.782,289.716,149.205,289.716z"/>
	<path fill="#FFFFFF" d="M149.205,285.944c-5.189,0-10.451-0.295-15.64-0.877c-76.061-8.533-131-77.354-122.467-153.413
		C18.985,61.336,78.215,8.309,148.871,8.309c5.188,0,10.45,0.295,15.64,0.877C240.57,17.719,295.51,86.539,286.979,162.6
		C279.091,232.917,219.86,285.944,149.205,285.944z"/>
	<circle fill="#F36523" cx="149.038" cy="147.127" r="135.034"/>
	<path fill="#FFFFFF" d="M81.178,116.782c-1.618-2.932-4.6-5.354-8.907-7.191c-4.21-1.789-9.308-2.701-15.173-2.701
		c-5.39,0-10.099,0.839-13.992,2.495c-4.101,1.74-7.143,4.246-9.041,7.435c-1.874,3.151-2.787,7.775-2.787,14.139
		c0,4.392,0.646,8.103,1.922,11.022c1.29,2.971,2.969,5.354,5.001,7.094c1.837,1.57,5.377,3.967,10.829,7.313
		c0.341,0.207,0.681,0.413,0.998,0.608H31.924v7.763c0,5.998,0.693,10.768,2.068,14.175c1.497,3.723,4.612,6.79,9.235,9.076
		c4.393,2.18,9.697,3.287,15.769,3.287c5.536,0,10.488-0.951,14.735-2.836c4.465-1.984,7.568-4.563,9.223-7.666
		c1.594-2.993,2.373-7.324,2.373-13.226c0-7.993-1.424-13.968-4.222-17.776c-2.629-3.565-8.14-7.653-17.302-12.788h19.76v-5.804
		c0-0.669,0-1.314-0.024-1.947h10.16v60.472h26.817v-60.472h12.581v-20.769H81.165v8.298H81.178z M57.256,169.017v-7.202
		c0.548,0.425,0.901,0.741,1.132,0.985c0.121,0.122,1.18,1.386,1.18,6.79c0,1.97-0.389,2.761-0.547,3.004
		c-0.085,0.123-0.195,0.292-0.803,0.292c-0.329,0-0.523-0.036-0.633-0.061c-0.109-0.341-0.329-1.363-0.329-3.796V169.017z
		 M57.256,125.543c0.085-0.134,0.146-0.219,0.56-0.219c0.085,0,0.158,0,0.219,0c0.098,0.39,0.243,1.327,0.243,3.249v4.928
		c-0.547-0.475-0.729-0.755-0.778-0.864c-0.268-0.475-0.73-1.654-0.73-4.295c0-1.874,0.353-2.592,0.498-2.811L57.256,125.543z"/>
	<path fill="#FFFFFF" d="M264.54,149.439c-0.486-0.548-1.069-1.058-1.752-1.532c1.096-0.658,2.008-1.449,2.727-2.373
		c2.02-2.592,2.956-6.911,2.956-13.591c0-7.045-1.314-12.351-3.918-15.782c-2.653-3.492-6.121-5.694-10.342-6.546
		c-3.711-0.754-10.732-1.131-20.867-1.131H215.53v81.229h26.816v-33.825c0.146,0.036,0.256,0.072,0.33,0.109
		c0.145,0.45,0.486,1.91,0.486,5.779v27.937h25.308v-22.752c0-8.433-0.328-10.781-0.62-11.9c-0.463-1.788-1.583-3.676-3.322-5.622
		H264.54z M243.163,130.069v4.161c0,2.263-0.244,3.261-0.365,3.638c-0.109,0.037-0.257,0.086-0.438,0.122v-10.647
		c0.292,0.085,0.402,0.146,0.415,0.146C242.81,127.551,243.163,128.134,243.163,130.069z"/>
	<g>
		<path fill="#002156" d="M80.764,134.169H61.089v-5.609c0-2.616-0.255-4.283-0.754-5s-1.338-1.071-2.519-1.071
			c-1.277,0-2.239,0.487-2.896,1.449c-0.657,0.961-0.986,2.433-0.986,4.392c0,2.519,0.365,4.429,1.108,5.695
			c0.705,1.277,2.7,2.822,5.986,4.624c9.43,5.196,15.368,9.454,17.825,12.787c2.446,3.334,3.675,8.7,3.675,16.11
			c0,5.39-0.681,9.357-2.032,11.912c-1.362,2.554-3.978,4.695-7.873,6.423c-3.893,1.729-8.419,2.593-13.591,2.593
			c-5.67,0-10.513-0.998-14.516-2.994c-4.003-1.993-6.631-4.524-7.872-7.616c-1.241-3.078-1.862-7.457-1.862-13.116v-4.952h19.675
			v9.199c0,2.836,0.28,4.647,0.828,5.463c0.559,0.816,1.533,1.216,2.944,1.216c1.412,0,2.458-0.51,3.14-1.544
			c0.694-1.035,1.034-2.556,1.034-4.576c0-4.453-0.657-7.36-1.959-8.735c-1.338-1.375-4.648-3.662-9.916-6.862
			c-5.269-3.236-8.761-5.586-10.464-7.057c-1.703-1.474-3.127-3.492-4.247-6.072c-1.131-2.58-1.69-5.889-1.69-9.904
			c0-5.792,0.802-10.026,2.396-12.703c1.594-2.677,4.174-4.77,7.726-6.278c3.553-1.509,7.848-2.263,12.885-2.263
			c5.5,0,10.196,0.828,14.065,2.47c3.881,1.655,6.449,3.723,7.702,6.229c1.253,2.507,1.886,6.765,1.886,12.776v2.993L80.764,134.169
			z"/>
		<path fill="#F36523" d="M59.033,189.095c-5.745,0-10.722-1.029-14.793-3.06c-4.134-2.059-6.883-4.73-8.172-7.94
			c-1.265-3.138-1.907-7.629-1.907-13.349v-5.574h20.92v9.821c0,3.34,0.392,4.626,0.721,5.115c0.433,0.632,1.228,0.941,2.428,0.941
			c1.202,0,2.059-0.414,2.621-1.265c0.619-0.923,0.931-2.346,0.931-4.233c0-4.259-0.602-7.055-1.789-8.308
			c-1.282-1.317-4.577-3.593-9.787-6.758c-5.374-3.302-8.823-5.63-10.547-7.117c-1.784-1.544-3.268-3.662-4.411-6.296
			c-1.156-2.635-1.742-6.051-1.742-10.152c0-5.873,0.836-10.253,2.484-13.021c1.654-2.778,4.352-4.976,8.018-6.532
			c3.614-1.535,8.031-2.313,13.128-2.313c5.556,0,10.37,0.848,14.309,2.52c4.009,1.709,6.706,3.904,8.016,6.524
			c1.295,2.591,1.952,6.983,1.952,13.054v3.251l-0.365,0.364l-0.282,0.024H60.467v-6.231c0-3.237-0.403-4.3-0.643-4.645
			c-0.375-0.542-1.032-0.804-2.008-0.804c-1.062,0-1.84,0.385-2.382,1.177c-0.582,0.852-0.877,2.211-0.877,4.041
			c0,2.414,0.344,4.224,1.022,5.38c0.453,0.82,1.81,2.233,5.749,4.393c9.598,5.289,15.494,9.528,18.027,12.964
			c2.519,3.435,3.796,8.979,3.796,16.479c0,5.456-0.708,9.562-2.104,12.203c-1.428,2.676-4.176,4.929-8.17,6.701
			C68.921,188.205,64.264,189.095,59.033,189.095z M35.406,160.416v4.33c0,5.56,0.611,9.895,1.816,12.883
			c1.172,2.921,3.72,5.374,7.573,7.293c3.897,1.943,8.688,2.929,14.238,2.929c5.055,0,9.543-0.854,13.339-2.54
			c3.734-1.656,6.283-3.724,7.576-6.146c1.299-2.458,1.958-6.367,1.958-11.619c0-7.23-1.195-12.526-3.554-15.742
			c-2.389-3.24-8.319-7.483-17.624-12.61c-3.419-1.874-5.458-3.466-6.231-4.868c-0.784-1.335-1.185-3.357-1.185-5.995
			c0-2.085,0.368-3.681,1.094-4.743c0.779-1.141,1.927-1.72,3.409-1.72c1.394,0,2.414,0.451,3.03,1.338
			c0.591,0.85,0.866,2.552,0.866,5.355v4.987h18.454v-2.395c0-5.876-0.612-10.081-1.82-12.498c-1.175-2.349-3.661-4.346-7.39-5.936
			c-3.783-1.605-8.434-2.42-13.821-2.42c-4.93,0-9.183,0.745-12.642,2.213c-3.417,1.452-5.919,3.478-7.435,6.024
			c-1.532,2.573-2.309,6.74-2.309,12.385c0,3.927,0.551,7.176,1.638,9.654c1.069,2.464,2.442,4.432,4.084,5.852
			c1.649,1.424,5.143,3.778,10.383,6.997c5.372,3.264,8.656,5.541,10.037,6.959c1.438,1.52,2.135,4.517,2.135,9.169
			c0,2.168-0.373,3.778-1.139,4.922c-0.795,1.207-2.026,1.82-3.657,1.82c-1.619,0-2.782-0.501-3.458-1.486
			c-0.631-0.939-0.936-2.84-0.936-5.814v-8.577H35.406z"/>
	</g>
	<g>
		<path fill="#002156" d="M130.297,111.295v15.124h-12.581v60.471H96.533v-60.471H84v-15.124H130.297z"/>
		<path fill="#F36523" d="M118.338,187.513H95.91v-60.471H83.378v-16.369h47.542v16.369h-12.582V187.513z M97.155,186.268h19.939
			v-60.471h12.581v-13.88H84.623v13.88h12.532V186.268z"/>
	</g>
	<g>
		<path fill="#002156" d="M218.354,111.295h15.003c10.001,0,16.766,0.353,20.307,1.071s6.425,2.542,8.649,5.487
			c2.228,2.944,3.347,7.629,3.347,14.078c0,5.888-0.79,9.831-2.36,11.862c-1.581,2.02-4.684,3.237-9.309,3.638
			c4.199,0.961,7.01,2.264,8.458,3.869c1.436,1.618,2.337,3.104,2.688,4.465c0.354,1.352,0.522,5.087,0.522,11.183v19.941h-19.675
			v-25.124c0-4.053-0.339-6.558-1.033-7.521c-0.694-0.96-2.494-1.447-5.414-1.447v34.092h-21.184V111.295z M239.537,124.229v16.815
			c2.384,0,4.052-0.304,5.013-0.913c0.962-0.608,1.435-2.579,1.435-5.901v-4.161c0-2.397-0.461-3.966-1.386-4.721
			C243.674,124.606,241.994,124.229,239.537,124.229L239.537,124.229z"/>
		<path fill="#F36523" d="M266.281,187.513h-20.919v-25.747c0-4.864-0.498-6.577-0.916-7.157c-0.367-0.506-1.414-1.105-4.287-1.182
			v34.086h-22.428v-76.84h15.625c10.15,0,16.833,0.354,20.43,1.083c3.682,0.747,6.718,2.672,9.023,5.723
			c2.304,3.045,3.472,7.908,3.472,14.453c0,6.07-0.814,10.075-2.489,12.243c-1.304,1.667-3.555,2.823-6.711,3.455
			c2.714,0.878,4.668,1.968,5.829,3.254c1.527,1.724,2.452,3.268,2.829,4.728c0.364,1.393,0.542,5.103,0.542,11.338V187.513z
			 M246.607,186.268h18.429v-19.319c0-6.043-0.168-9.752-0.502-11.025c-0.321-1.247-1.18-2.663-2.552-4.21
			c-1.367-1.516-4.104-2.753-8.131-3.675l-3.861-0.884l3.947-0.343c4.42-0.384,7.406-1.528,8.872-3.401
			c1.477-1.912,2.227-5.775,2.227-11.479c0-6.268-1.082-10.878-3.22-13.703c-2.116-2.802-4.901-4.569-8.277-5.253
			c-3.466-0.703-10.256-1.059-20.183-1.059h-14.38v74.351h19.938v-34.093h0.623c3.151,0,5.088,0.559,5.918,1.705
			c0.786,1.091,1.152,3.596,1.152,7.886V186.268z M239.537,141.667h-0.623v-18.06h0.623c2.613,0,4.397,0.411,5.451,1.257
			c1.091,0.89,1.619,2.592,1.619,5.206v4.161c0,3.64-0.548,5.682-1.726,6.427C243.81,141.336,242.062,141.667,239.537,141.667z
			 M240.159,124.859v15.555c1.92-0.047,3.283-0.318,4.057-0.809c0.429-0.271,1.146-1.329,1.146-5.375v-4.161
			c0-2.187-0.39-3.612-1.156-4.239C243.472,125.242,242.111,124.916,240.159,124.859z"/>
	</g>
	<polygon fill="#FFFFFF" points="236.081,124.837 189.456,124.837 183.955,78.99 154.778,125.044 107.97,125.044 135.444,157.664 
		91.228,210.873 159.146,179.737 208.168,209.789 193.118,158.955 	"/>
	<polygon fill="#002156" points="226.846,128.061 186.596,128.061 181.84,88.348 156.542,128.269 114.894,128.269 139.642,157.642 
		102.75,202.053 159.365,176.087 202.693,202.66 189.419,157.773 	"/>
	<g>
		<path fill="#F36523" d="M204.277,204.728l-44.976-27.584L99.413,204.61l39.013-46.965l-25.539-30.311h43.142l26.427-41.702
			l4.97,41.494h42.098l-39.03,30.986L204.277,204.728z M159.43,175.031l41.679,25.562l-12.763-43.158l35.823-28.44h-38.401
			l-4.543-37.933l-24.169,38.14h-40.155l23.958,28.435l-34.77,41.858L159.43,175.031z"/>
	</g>
	<path fill="#FFFFFF" d="M180.95,158.055c2.288-13.189,13.482-25.175,20.467-31.514l-1.533-1.691h-0.427
		c-7.397,6.765-19.079,19.455-21.158,33.595c-2.872,0.376-5.623,0.645-8.25,0.803c6.851-16.585,14.041-42.806,10.987-75.646
		l-2.288,3.614c2.275,31.526-4.928,56.542-11.534,72.177c-5.438,0.206-10.281,0.023-14.407-0.34
		c1.424-3.979,2.008-7.689,2.008-10.684c0-14.224-8.322-22.936-8.687-23.301l-1.838,1.8c0.073,0.086,7.947,8.311,7.947,21.5
		c0,2.896-0.597,6.522-2.057,10.415c-8.019-0.925-12.703-2.445-12.8-2.482l-0.815,2.446c0.425,0.146,4.952,1.618,12.556,2.567
		c-4.831,10.439-16.024,21.975-38.388,26.124l-2.507,3.017c25.893-3.906,38.438-17.095,43.571-28.837
		c3.164,0.316,6.753,0.522,10.731,0.522c1.145,0,2.324-0.023,3.541-0.061c-4.429,9.88-8.285,15.344-8.396,15.49l2.094,1.507
		c0.109-0.156,4.404-6.229,9.161-17.131c2.896-0.157,5.927-0.425,9.125-0.84c-0.036,0.548-0.084,1.096-0.084,1.655
		c0,10.622,2.98,22.74,24.103,26.331l-0.814-2.762c-17.982-3.469-20.709-13.664-20.709-23.569c0-0.682,0.061-1.35,0.109-2.02
		c4.405-0.668,9.064-1.617,13.919-2.896l2.641-2.105l-0.34-1.192c-5.573,1.617-10.878,2.75-15.892,3.529L180.95,158.055z"/>
	<path fill="#FFFFFF" d="M89.208,76.362c-1.436-0.56-3.395-0.754-5.901-0.584l-0.657,0.036l4.478-3.273l-0.706-1.253
		c-0.061-0.11-0.146-0.244-0.243-0.39c-0.085-0.122-0.207-0.292-0.365-0.511c-1.667-2.275-3.65-3.601-5.889-3.917
		c-2.227-0.316-4.539,0.377-6.85,2.068c-2.19,1.606-3.528,3.504-3.966,5.646c-0.45,2.202,0.097,4.368,1.618,6.448
		c1.01,1.387,2.19,2.36,3.505,2.872c1.266,0.499,3.285,0.681,6.108,0.547h0.231l-3.699,2.689l-1.156,0.961l0.791,1.266
		c0.377,0.597,0.658,1.022,0.84,1.277c1.838,2.506,3.906,3.966,6.145,4.32c0.364,0.061,0.742,0.085,1.119,0.085
		c1.922,0,3.955-0.767,6.035-2.299c2.385-1.74,3.821-3.736,4.283-5.95c0.475-2.276-0.109-4.551-1.74-6.766
		c-1.168-1.594-2.506-2.702-3.991-3.285L89.208,76.362z M84.22,83.918c1.18,0,1.642,0.122,1.788,0.17
		c0.304,0.109,0.572,0.316,0.815,0.657c0.304,0.414,0.426,0.754,0.377,1.01c-0.073,0.39-0.499,0.767-0.84,1.022
		c-0.34,0.243-0.523,0.316-0.754,0.329c-0.024,0-0.511-0.183-1.557-1.619l-1.132-1.545h0.45c0.304-0.024,0.584-0.037,0.84-0.037
		L84.22,83.918z M78.136,73.917c0.097,0.024,0.583,0.207,1.423,1.351l0.523,0.706h-0.061c-0.34,0.024-0.645,0.037-0.949,0.037
		c-1.813,0-2.166-0.414-2.178-0.426c-0.292-0.402-0.255-0.596-0.244-0.669c0.012-0.073,0.049-0.28,0.475-0.597
		c0.34-0.255,0.669-0.401,0.973-0.401C78.112,73.917,78.124,73.917,78.136,73.917z"/>
	<polygon fill="#FFFFFF" points="97.397,55.422 101.399,64.451 98.175,65.874 94.172,56.846 86.751,60.13 98.249,86.096 
		105.671,82.811 101.047,72.371 104.272,70.948 108.895,81.375 116.305,78.09 104.819,52.137 	"/>
	<path fill="#FFFFFF" d="M133.51,59.814c-0.572-2.665-1.18-4.818-1.801-6.4c-0.682-1.74-1.448-3.005-2.349-3.869
		c-1.217-1.156-2.555-1.898-3.978-2.214c-1.375-0.304-3.03-0.244-4.953,0.17c-1.947,0.426-3.444,1.047-4.575,1.898
		c-1.168,0.876-2.081,2.118-2.689,3.65c-0.475,1.144-0.657,2.604-0.572,4.478c0.085,1.703,0.414,3.869,0.998,6.595
		c0.584,2.677,1.192,4.842,1.813,6.424c0.693,1.752,1.46,3.005,2.348,3.833c1.205,1.155,2.543,1.91,3.967,2.226
		c0.584,0.134,1.216,0.195,1.898,0.195c0.924,0,1.947-0.122,3.054-0.365c1.947-0.426,3.443-1.046,4.575-1.898
		c1.168-0.876,2.081-2.117,2.713-3.675c0.45-1.144,0.62-2.616,0.535-4.478c-0.085-1.703-0.414-3.905-0.997-6.559L133.51,59.814z
		 M126.38,68.685c-0.085,0.341-0.244,0.718-1.144,0.913c-0.707,0.158-1.132,0.073-1.472-0.389c-0.256-0.341-0.986-1.68-2.105-6.838
		c-1.131-5.22-1.034-6.741-0.937-7.154c0.085-0.353,0.243-0.743,1.156-0.95c0.195-0.049,0.377-0.061,0.548-0.061
		c0.401,0,0.657,0.122,0.9,0.438c0.255,0.34,0.986,1.679,2.105,6.898c1.131,5.22,1.034,6.729,0.937,7.13L126.38,68.685z"/>
	<path fill="#FFFFFF" d="M155.935,52.441c-0.34-1.837-0.852-3.224-1.582-4.246c-0.974-1.363-2.142-2.349-3.48-2.933
		c-1.192-0.523-2.688-0.779-4.465-0.779h-0.426c-1.996,0.049-3.577,0.377-4.854,0.998c-1.314,0.645-2.446,1.679-3.321,3.066
		c-0.682,1.022-1.145,2.434-1.412,4.294c-0.244,1.691-0.329,3.93-0.268,6.668c0.062,2.786,0.244,4.965,0.56,6.656
		c0.341,1.849,0.864,3.224,1.582,4.209c0.961,1.363,2.129,2.361,3.48,2.944c1.205,0.523,2.665,0.779,4.465,0.779h0.426
		c1.996-0.049,3.577-0.377,4.854-0.998c1.313-0.645,2.445-1.679,3.358-3.102c0.657-1.047,1.107-2.446,1.374-4.296
		c0.244-1.679,0.328-3.917,0.27-6.63c-0.062-2.726-0.245-4.953-0.549-6.619L155.935,52.441z M147.478,52.063
		c0.183,0.377,0.646,1.838,0.755,7.179c0.122,5.341-0.268,6.802-0.426,7.179c-0.146,0.316-0.378,0.669-1.375,0.681
		c-0.901,0-1.144-0.341-1.302-0.657c-0.195-0.377-0.646-1.837-0.767-7.118c-0.122-5.342,0.268-6.814,0.438-7.203
		c0.146-0.329,0.377-0.682,1.326-0.706l0.073-1.606l0,0v1.594c0.875,0,1.119,0.341,1.277,0.646V52.063z"/>
	<polygon fill="#FFFFFF" points="179.016,48.049 159.768,45.129 158.659,52.417 164.257,53.269 161.104,74.05 169.161,75.267 
		172.312,54.485 177.909,55.337 	"/>
	
		<rect x="167.792" y="59.748" transform="matrix(-0.2756 0.9613 -0.9613 -0.2756 293.4985 -93.5204)" fill="#FFFFFF" width="28.387" height="8.153"/>
	<polygon fill="#FFFFFF" points="205.894,57.77 201.562,67.334 202.244,56.079 195.186,52.818 183.275,78.589 190.416,81.898 
		194.784,72.25 194.116,83.602 201.148,86.851 213.049,61.08 	"/>
	<path fill="#FFFFFF" d="M231.531,76.521c-0.354-2.239-1.837-4.38-4.418-6.364c-1.496-1.156-2.968-1.922-4.356-2.287
		c-1.483-0.39-2.991-0.341-4.403,0.122c-1.193,0.376-2.409,1.131-3.724,2.323c-1.205,1.095-2.566,2.629-4.161,4.697
		c-3.443,4.478-5.305,7.909-5.671,10.476c-0.28,1.971,0.086,4.867,3.421,7.435c1.458,1.131,2.822,1.751,4.137,1.91
		c0.048,0,0.097,0,0.146,0.013l-0.243,0.426l5.036,3.881l10.342-13.433l-9.015-6.935l-4.417,5.743l2.701,2.081
		c-1.083,1.29-1.753,1.679-2.081,1.789c-0.45,0.158-0.888,0-1.472-0.45c-0.524-0.402-0.657-0.779-0.486-1.399
		c0.156-0.584,0.814-2.081,3.468-5.536c3.601-4.685,4.83-5.5,5.122-5.646c0.522-0.243,0.973-0.109,1.605,0.377
		c0.67,0.523,0.756,0.937,0.756,1.241c0,0.597-0.366,1.375-1.049,2.264l-1.143,1.484l6.193,4.769l1.376-1.776
		c1.908-2.482,2.699-4.903,2.348-7.178L231.531,76.521z"/>
	<g>
		<path fill="#002156" d="M77.819,88.043l3.979-2.908l0.961,1.301c0.913,1.253,1.704,1.983,2.36,2.19
			c0.657,0.219,1.387,0.024,2.19-0.56c0.84-0.608,1.326-1.29,1.472-2.008c0.146-0.729-0.073-1.484-0.657-2.275
			c-0.439-0.608-0.974-1.022-1.607-1.229c-0.62-0.219-1.691-0.292-3.211-0.231l-3.042,0.122c-2.604,0.122-4.417-0.024-5.451-0.426
			c-1.034-0.414-1.959-1.181-2.799-2.324c-1.253-1.703-1.691-3.431-1.339-5.171c0.353-1.74,1.473-3.297,3.334-4.661
			c1.971-1.448,3.869-2.043,5.67-1.776c1.8,0.268,3.406,1.351,4.818,3.273c0.146,0.194,0.243,0.341,0.316,0.45
			c0.073,0.11,0.134,0.207,0.183,0.292l-3.771,2.75l-0.401-0.536c-0.804-1.095-1.57-1.752-2.3-1.947
			c-0.73-0.194-1.521,0.024-2.397,0.657c-0.632,0.463-1.01,1.01-1.107,1.631c-0.11,0.62,0.073,1.253,0.535,1.886
			c0.621,0.852,2.13,1.205,4.526,1.046h0.061l3.224-0.194c2.288-0.159,4.015,0,5.208,0.474c1.192,0.475,2.288,1.388,3.273,2.738
			c1.351,1.85,1.837,3.675,1.459,5.488c-0.377,1.813-1.594,3.468-3.662,4.976c-2.142,1.57-4.125,2.203-5.95,1.923
			c-1.825-0.292-3.517-1.521-5.098-3.674c-0.17-0.231-0.426-0.621-0.779-1.181l-0.061-0.073L77.819,88.043z"/>
		<path fill="#F36523" d="M84.545,93.276c-0.296,0-0.593-0.023-0.882-0.067c-1.865-0.299-3.627-1.564-5.24-3.76
			c-0.168-0.229-0.418-0.608-0.787-1.194L77.4,87.978l0.338-0.136l4.106-3.009l1.09,1.475c0.879,1.208,1.636,1.919,2.251,2.113
			c0.593,0.197,1.25,0.016,1.998-0.528c0.783-0.567,1.25-1.198,1.387-1.876c0.133-0.67-0.069-1.357-0.619-2.103
			c-0.416-0.575-0.919-0.962-1.5-1.151c-0.587-0.208-1.646-0.28-3.136-0.221l-3.042,0.122c-2.601,0.122-4.472-0.026-5.538-0.441
			c-1.082-0.433-2.028-1.216-2.895-2.398c-1.279-1.739-1.742-3.536-1.377-5.342c0.362-1.784,1.513-3.396,3.419-4.792
			c2.012-1.478,3.982-2.088,5.83-1.815c1.858,0.276,3.527,1.407,4.961,3.359c0.147,0.197,0.247,0.346,0.321,0.458
			c0.076,0.115,0.14,0.216,0.19,0.306l0.096,0.168l-4.102,2.989l-0.53-0.706c-0.778-1.061-1.512-1.689-2.182-1.868
			c-0.667-0.176-1.387,0.026-2.214,0.624c-0.589,0.431-0.933,0.933-1.02,1.489c-0.099,0.56,0.068,1.138,0.496,1.724
			c0.572,0.785,2.042,1.11,4.337,0.958l0.075,0l3.211-0.194c2.298-0.16,4.081,0.003,5.301,0.488
			c1.231,0.491,2.364,1.437,3.368,2.812c1.381,1.892,1.885,3.796,1.497,5.66c-0.386,1.857-1.647,3.576-3.746,5.107
			C87.938,92.593,86.179,93.276,84.545,93.276z M78.068,88.13c0.334,0.524,0.555,0.857,0.705,1.062
			c1.543,2.102,3.211,3.309,4.958,3.588c1.761,0.268,3.714-0.363,5.788-1.883c2.01-1.466,3.213-3.096,3.578-4.845
			c0.362-1.739-0.117-3.527-1.422-5.316c-0.955-1.308-2.024-2.204-3.178-2.664c-1.158-0.46-2.875-0.612-5.113-0.459l-3.3,0.195
			c-0.363,0.024-0.718,0.037-1.052,0.037c-1.855,0-3.083-0.395-3.65-1.172c-0.5-0.685-0.693-1.375-0.573-2.051
			c0.104-0.669,0.506-1.266,1.192-1.769c0.939-0.678,1.787-0.901,2.581-0.691c0.779,0.208,1.57,0.871,2.419,2.028l0.271,0.363
			l3.438-2.507c-0.023-0.036-0.048-0.074-0.075-0.114c-0.071-0.107-0.167-0.25-0.309-0.44c-1.365-1.857-2.937-2.93-4.676-3.188
			c-1.738-0.258-3.592,0.328-5.51,1.737c-1.817,1.33-2.911,2.854-3.25,4.528c-0.341,1.681,0.097,3.363,1.3,5
			c0.818,1.114,1.703,1.85,2.705,2.251c1.003,0.389,2.818,0.531,5.36,0.411l3.043-0.122c1.57-0.061,2.649,0.016,3.292,0.244
			c0.665,0.217,1.242,0.657,1.71,1.306c0.617,0.835,0.85,1.659,0.694,2.445c-0.16,0.788-0.684,1.508-1.558,2.141
			c-0.865,0.63-1.67,0.829-2.386,0.589c-0.711-0.224-1.52-0.966-2.467-2.269l-0.832-1.126L78.068,88.13z"/>
	</g>
	<g>
		<path fill="#002156" d="M99.063,83.967L88.868,60.958l4.478-1.983l3.991,9.028l6.169-2.737l-3.991-9.028l4.478-1.983
			l10.184,23.008l-4.478,1.983l-4.624-10.428l-6.168,2.737l4.611,10.428l-4.478,1.983H99.063z"/>
		<path fill="#F36523" d="M98.949,84.244l-0.026-0.06h-0.909l0.759-0.336l-10.192-23l4.875-2.159l3.991,9.028l5.772-2.562
			l-3.991-9.028l4.875-2.158l0.088,0.198l10.271,23.207l-4.874,2.159l-4.624-10.427l-5.772,2.562l4.611,10.428l-4.458,1.974
			l0.047,0.106l-0.306,0.009L98.949,84.244z M89.154,61.069L99.17,83.672l4.062-1.798L98.62,71.445l6.564-2.913l4.624,10.428
			l4.081-1.809l-10.008-22.611L99.8,56.348l3.991,9.028l-6.565,2.914l-3.991-9.028L89.154,61.069z"/>
	</g>
	<g>
		<path fill="#002156" d="M115.174,63.781c-0.56-2.604-0.889-4.721-0.961-6.339c-0.085-1.618,0.06-2.871,0.438-3.784
			c0.511-1.277,1.229-2.275,2.166-2.981c0.937-0.706,2.25-1.241,3.954-1.606s3.115-0.426,4.259-0.171
			c1.144,0.256,2.214,0.865,3.212,1.813c0.718,0.693,1.375,1.789,1.971,3.286c0.584,1.496,1.168,3.553,1.728,6.144
			c0.56,2.592,0.876,4.685,0.961,6.303s-0.061,2.883-0.426,3.809c-0.523,1.277-1.241,2.275-2.178,2.98
			c-0.937,0.706-2.25,1.241-3.955,1.606c-1.703,0.365-3.114,0.426-4.259,0.17c-1.144-0.256-2.214-0.864-3.2-1.813
			c-0.717-0.669-1.375-1.752-1.971-3.261c-0.596-1.508-1.18-3.564-1.739-6.169V63.781z M120.089,62.723
			c0.875,4.052,1.667,6.546,2.396,7.483c0.718,0.937,1.752,1.266,3.091,0.973c1.314-0.28,2.104-0.998,2.373-2.129
			c0.268-1.132-0.048-3.748-0.925-7.836c-0.888-4.088-1.691-6.607-2.397-7.543c-0.718-0.937-1.74-1.266-3.066-0.974
			c-1.327,0.292-2.129,1.01-2.397,2.153c-0.267,1.156,0.049,3.772,0.925,7.86V62.723z"/>
		<path fill="#F36523" d="M123.615,75.384c-0.569,0-1.1-0.054-1.578-0.161c-1.177-0.264-2.289-0.892-3.303-1.869
			c-0.738-0.688-1.419-1.812-2.021-3.338c-0.453-1.144-0.895-2.597-1.321-4.333v0.125l-0.429-1.982
			c-0.578-2.688-0.894-4.773-0.966-6.375c-0.087-1.658,0.061-2.926,0.454-3.876c0.527-1.317,1.28-2.351,2.236-3.071
			c0.959-0.723,2.318-1.277,4.039-1.646c1.741-0.373,3.191-0.429,4.352-0.17c1.171,0.263,2.287,0.891,3.314,1.868
			c0.738,0.713,1.419,1.844,2.023,3.363c0.599,1.535,1.184,3.614,1.738,6.178c0.555,2.568,0.88,4.701,0.966,6.337
			c0.086,1.628-0.062,2.94-0.44,3.9c-0.543,1.326-1.3,2.359-2.25,3.074c-0.959,0.723-2.318,1.276-4.039,1.646
			C125.364,75.273,124.431,75.384,123.615,75.384z M115.27,63.185l0.116,0.538c0.55,2.559,1.132,4.623,1.729,6.135
			c0.579,1.465,1.224,2.536,1.917,3.183c0.959,0.922,2.001,1.514,3.1,1.759c1.099,0.246,2.49,0.189,4.166-0.17
			c1.66-0.356,2.961-0.884,3.87-1.568c0.887-0.667,1.596-1.639,2.108-2.889c0.354-0.899,0.493-2.149,0.41-3.715
			c-0.085-1.613-0.407-3.723-0.957-6.269c-0.549-2.542-1.127-4.598-1.718-6.111c-0.581-1.46-1.227-2.54-1.92-3.208
			c-0.968-0.921-2.015-1.513-3.109-1.757c-1.097-0.246-2.488-0.189-4.165,0.171c-1.659,0.355-2.961,0.882-3.87,1.567
			c-0.892,0.672-1.597,1.644-2.095,2.888c-0.363,0.878-0.505,2.12-0.423,3.692C114.495,58.899,114.771,60.786,115.27,63.185z
			 M124.68,71.499L124.68,71.499c-0.979,0-1.775-0.391-2.366-1.161c-0.746-0.957-1.543-3.433-2.437-7.569l-0.005-0.058
			c-0.89-4.127-1.192-6.729-0.92-7.909c0.288-1.226,1.149-2.005,2.563-2.316c1.401-0.31,2.515,0.049,3.285,1.053
			c0.737,0.979,1.534,3.474,2.436,7.629c0.896,4.179,1.199,6.772,0.924,7.932c-0.29,1.224-1.144,1.995-2.539,2.292
			C125.293,71.462,124.976,71.499,124.68,71.499z M122.449,52.81c-0.262,0-0.545,0.033-0.841,0.098
			c-1.253,0.276-1.983,0.928-2.232,1.991c-0.254,1.1,0.057,3.713,0.926,7.766l0.004,0.058c0.863,3.969,1.655,6.457,2.351,7.35
			c0.512,0.668,1.174,0.993,2.023,0.993l0,0c0.265,0,0.551-0.033,0.85-0.099c1.235-0.263,1.957-0.906,2.208-1.967
			c0.255-1.08-0.056-3.685-0.926-7.74c-0.876-4.036-1.67-6.545-2.357-7.459C123.944,53.135,123.288,52.81,122.449,52.81z"/>
	</g>
	<g>
		<path fill="#002156" d="M137.732,59.474c-0.062-2.665,0.024-4.806,0.255-6.4c0.231-1.606,0.608-2.811,1.156-3.626
			c0.742-1.156,1.631-1.996,2.689-2.507c1.059-0.51,2.446-0.79,4.186-0.827c1.74-0.037,3.139,0.17,4.222,0.645
			c1.071,0.462,2.007,1.266,2.812,2.385c0.582,0.815,1.01,2.02,1.301,3.602c0.292,1.582,0.474,3.712,0.523,6.363
			c0.061,2.653-0.024,4.77-0.257,6.376c-0.23,1.606-0.607,2.823-1.131,3.662c-0.753,1.157-1.654,1.996-2.701,2.507
			c-1.058,0.511-2.445,0.791-4.185,0.828c-1.74,0.036-3.139-0.17-4.222-0.645c-1.07-0.462-2.008-1.266-2.798-2.385
			c-0.584-0.791-1.01-1.983-1.314-3.577c-0.304-1.594-0.475-3.724-0.535-6.388V59.474z M142.757,59.364
			c0.097,4.137,0.401,6.741,0.937,7.8c0.536,1.059,1.484,1.582,2.847,1.545c1.351-0.024,2.251-0.572,2.726-1.643
			c0.474-1.059,0.669-3.687,0.571-7.872c-0.097-4.187-0.401-6.802-0.924-7.861c-0.523-1.058-1.472-1.569-2.823-1.545
			c-1.362,0.037-2.275,0.584-2.762,1.667c-0.475,1.083-0.669,3.711-0.584,7.897L142.757,59.364z"/>
		<path fill="#F36523" d="M146.223,72.702c-1.619,0-2.905-0.219-3.93-0.668c-1.099-0.475-2.071-1.302-2.888-2.458
			c-0.59-0.799-1.033-1.998-1.35-3.662c-0.3-1.572-0.477-3.673-0.539-6.423c-0.062-2.681,0.025-4.846,0.258-6.449
			c0.239-1.663,0.628-2.878,1.19-3.715c0.766-1.193,1.7-2.063,2.774-2.581c1.092-0.527,2.531-0.813,4.276-0.849
			c1.798-0.041,3.208,0.178,4.314,0.663c1.092,0.471,2.068,1.298,2.9,2.457c0.598,0.836,1.035,2.042,1.339,3.689
			c0.301,1.631,0.478,3.784,0.526,6.398c0.061,2.687-0.024,4.784-0.259,6.411c-0.232,1.623-0.623,2.882-1.161,3.746
			c-0.777,1.193-1.716,2.062-2.791,2.587c-1.091,0.527-2.529,0.813-4.275,0.85C146.477,72.701,146.349,72.702,146.223,72.702z
			 M146.405,46.327c-0.126,0-0.253,0.001-0.383,0.004c-1.683,0.035-3.061,0.306-4.096,0.805c-1.016,0.491-1.866,1.285-2.601,2.429
			c-0.527,0.785-0.893,1.941-1.124,3.539c-0.229,1.579-0.314,3.72-0.253,6.364c0.062,2.738,0.236,4.816,0.532,6.365
			c0.305,1.598,0.722,2.74,1.275,3.489c0.772,1.094,1.683,1.871,2.71,2.314c1.047,0.458,2.4,0.663,4.132,0.627
			c1.684-0.035,3.061-0.307,4.096-0.806c1.003-0.49,1.883-1.307,2.614-2.43c0.503-0.808,0.873-2.012,1.098-3.575
			c0.228-1.581,0.313-3.713,0.255-6.34c-0.049-2.592-0.224-4.721-0.521-6.329c-0.286-1.561-0.712-2.743-1.264-3.515
			c-0.785-1.093-1.701-1.871-2.721-2.312C149.185,46.533,147.959,46.327,146.405,46.327z M146.409,68.928
			c-1.371,0-2.35-0.561-2.909-1.666c-0.542-1.073-0.856-3.625-0.958-7.801h0l-0.014-0.104c-0.086-4.253,0.11-6.867,0.603-7.988
			c0.519-1.154,1.512-1.758,2.954-1.797l0.096-0.001c1.395,0,2.38,0.561,2.927,1.667c0.538,1.09,0.848,3.69,0.947,7.952
			c0.098,4.193-0.101,6.874-0.59,7.966c-0.51,1.148-1.492,1.745-2.92,1.771L146.409,68.928z M142.96,59.259l0.014,0.1
			c0.096,4.106,0.404,6.699,0.913,7.707c0.486,0.961,1.311,1.429,2.522,1.429l0.125-0.002c1.264-0.022,2.092-0.518,2.534-1.514
			c0.463-1.034,0.649-3.651,0.553-7.779c-0.096-4.138-0.399-6.752-0.902-7.77c-0.475-0.959-1.305-1.425-2.539-1.425l-0.086,0.001
			c-1.277,0.035-2.118,0.538-2.567,1.539C143.071,52.583,142.88,55.179,142.96,59.259z"/>
	</g>
	<g>
		<path fill="#002156" d="M162.941,72.7l3.153-20.782l-5.599-0.851l0.621-4.101l16.074,2.434l-0.62,4.101l-5.598-0.852
			l-3.152,20.782l-4.866-0.742L162.941,72.7z"/>
		<path fill="#F36523" d="M168.004,73.677l-4.979-0.759l-0.378,0.351l0.08-0.602l3.12-20.567l-5.598-0.852l0.685-4.529l16.503,2.499
			l-0.684,4.53l-5.599-0.852L168.004,73.677z M163.19,72.504l4.449,0.678l3.151-20.782l5.598,0.853l0.556-3.672l-15.646-2.369
			l-0.556,3.672l5.598,0.851l-0.032,0.214L163.19,72.504z"/>
	</g>
	<g>
		<path fill="#002156" d="M176.157,75.255l6.935-24.188l4.733,1.363l-6.937,24.189L176.157,75.255z"/>
		<path fill="#F36523" d="M181.037,76.886l-5.148-1.483l7.055-24.605l5.149,1.483L181.037,76.886z M176.425,75.106l4.315,1.243
			l6.817-23.772l-4.317-1.242L176.425,75.106z"/>
	</g>
	<g>
		<path fill="#002156" d="M185.416,77.81l10.562-22.851l4.599,2.129l-1.132,18.872l7.253-16.037l4.222,1.947l-10.563,22.851
			l-4.563-2.105l1.096-18.921l-7.277,16.062l-4.209-1.947H185.416z"/>
		<path fill="#F36523" d="M200.462,85.009l-4.893-2.258l0.009-0.147l1.028-17.756l-6.887,15.198l-5.301-2.453h0.857l10.595-22.922
			l4.931,2.283l-0.009,0.147L199.731,74.8l6.858-15.164l4.617,2.129L200.462,85.009z M196.019,82.481l4.231,1.953l10.381-22.458
			l-3.826-1.765l-7.648,16.909l1.194-19.898l-4.268-1.976l-10.382,22.461l3.804,1.76l7.669-16.925L196.019,82.481z"/>
	</g>
	<g>
		<path fill="#002156" d="M214.362,94.856l1.411-2.421c-1.144,0.645-2.215,0.913-3.224,0.803c-1.011-0.122-2.13-0.646-3.347-1.582
			c-2.189-1.691-3.126-3.662-2.811-5.938c0.328-2.263,2.104-5.512,5.354-9.722c1.521-1.971,2.834-3.467,3.966-4.49
			c1.132-1.022,2.166-1.679,3.115-1.983c1.155-0.378,2.324-0.414,3.516-0.098c1.192,0.316,2.458,0.985,3.784,2.007
			c2.252,1.729,3.516,3.517,3.809,5.342c0.292,1.825-0.39,3.808-2.032,5.95l-0.39,0.499l-3.65-2.811l0.159-0.207
			c0.913-1.192,1.374-2.275,1.374-3.236c0-0.974-0.461-1.813-1.387-2.519c-1.132-0.876-2.226-1.059-3.285-0.547
			c-1.058,0.511-2.956,2.542-5.694,6.108c-2.165,2.811-3.42,4.854-3.748,6.108c-0.327,1.253,0.024,2.287,1.072,3.09
			c1.034,0.791,2.032,1.022,2.992,0.693c0.962-0.34,2.057-1.301,3.298-2.908l0.523-0.681l-2.714-2.081l2.444-3.188l6.462,4.976
			L216.989,96.9l-2.64-2.031L214.362,94.856z"/>
		<path fill="#F36523" d="M217.029,97.205l-3.011-2.318l0.18-0.174l1.02-1.753c-0.941,0.422-1.842,0.586-2.691,0.495
			c-1.058-0.127-2.22-0.674-3.456-1.626c-2.244-1.733-3.217-3.799-2.893-6.139c0.336-2.313,2.151-5.618,5.397-9.825
			c1.563-2.026,2.87-3.504,3.992-4.518c1.162-1.048,2.206-1.712,3.194-2.029c1.193-0.389,2.418-0.424,3.637-0.1
			c1.222,0.324,2.521,1.012,3.862,2.045c2.278,1.749,3.587,3.592,3.891,5.479c0.299,1.874-0.399,3.931-2.075,6.117l-0.522,0.67
			l-3.993-3.075l0.291-0.379c0.882-1.152,1.328-2.196,1.328-3.104c0-0.911-0.425-1.679-1.301-2.346
			c-1.06-0.823-2.076-0.999-3.06-0.525c-1.027,0.497-2.918,2.531-5.616,6.045c-2.143,2.782-3.391,4.811-3.71,6.031
			c-0.309,1.178,0.017,2.114,0.994,2.863c0.97,0.743,1.901,0.963,2.79,0.66c0.918-0.325,1.994-1.279,3.197-2.835l0.391-0.508
			l-2.714-2.081l2.709-3.532l6.805,5.241L217.029,97.205z M214.637,94.816l2.313,1.78l8.108-10.534l-6.118-4.711l-2.181,2.843
			l2.714,2.081l-0.655,0.853c-1.272,1.647-2.384,2.622-3.397,2.98c-1.031,0.354-2.108,0.107-3.196-0.726
			c-1.115-0.855-1.502-1.971-1.15-3.317c0.335-1.276,1.608-3.358,3.785-6.186c2.78-3.619,4.667-5.637,5.773-6.171
			c1.13-0.545,2.322-0.352,3.512,0.572c0.976,0.743,1.471,1.648,1.471,2.689c0,1.005-0.478,2.139-1.419,3.368l-0.027,0.036
			l3.309,2.547l0.257-0.329c1.6-2.086,2.27-4.032,1.988-5.783c-0.283-1.773-1.537-3.524-3.725-5.204
			c-1.297-0.998-2.544-1.661-3.709-1.97c-1.139-0.301-2.276-0.271-3.393,0.094c-0.916,0.293-1.938,0.945-3.037,1.938
			c-1.104,0.997-2.392,2.455-3.94,4.461c-3.199,4.146-4.986,7.383-5.311,9.621c-0.306,2.205,0.586,4.081,2.728,5.735
			c1.173,0.903,2.264,1.421,3.24,1.539c0.943,0.103,1.992-0.157,3.091-0.777l0.696-0.393L214.637,94.816z"/>
	</g>
	<g>
		<path fill="#002156" d="M84.584,196.43l4.575,4.843c1.448,1.533,2.434,2.786,2.969,3.771c0.535,0.986,0.706,2.021,0.523,3.116
			c-0.183,1.095-0.986,2.312-2.421,3.661c-0.961,0.912-1.801,1.377-2.507,1.389s-1.63-0.379-2.786-1.193
			c0.828,1.338,1.18,2.445,1.034,3.334s-0.754,1.849-1.825,2.858l-1.533,1.449c-1.119,1.059-2.081,1.69-2.883,1.909
			c-0.803,0.22-1.606,0.11-2.397-0.34c-0.791-0.438-2.104-1.642-3.954-3.59l-5.293-5.609l16.523-15.598L84.584,196.43z
			 M80.095,209.852l-4.623,4.368c0.668,0.669,1.168,1.01,1.521,1.033c0.352,0.024,0.851-0.268,1.521-0.9l1.545-1.459
			c0.705-0.671,1.058-1.158,1.046-1.474c0-0.304-0.341-0.839-1.01-1.582V209.852z M86.336,203.949l-3.674,3.47
			c0.207,0.206,0.353,0.352,0.462,0.473c0.45,0.475,0.84,0.682,1.169,0.621c0.328-0.062,0.985-0.561,1.97-1.484
			c0.523-0.487,0.828-0.889,0.938-1.192c0.109-0.305,0.109-0.572,0-0.792C87.091,204.826,86.799,204.46,86.336,203.949
			L86.336,203.949z"/>
		<path fill="#FFFFFF" d="M78.931,222.115c-0.613,0-1.224-0.171-1.815-0.507c-0.822-0.455-2.112-1.622-4.056-3.669l-5.293-5.609
			c-0.167-0.176-0.158-0.454,0.018-0.62l16.422-15.502c0.081-0.139,0.233-0.217,0.395-0.217c0.146,0.006,0.285,0.083,0.364,0.204
			l4.513,4.776c1.484,1.57,2.477,2.835,3.035,3.863c0.577,1.063,0.769,2.206,0.57,3.397c-0.2,1.202-1.035,2.481-2.553,3.908
			c-1.053,1-1.969,1.494-2.799,1.508c0,0,0,0-0.001,0c-0.505,0-1.059-0.148-1.682-0.45c0.346,0.839,0.463,1.573,0.356,2.224
			c-0.164,0.99-0.822,2.035-1.958,3.106l-1.533,1.448c-1.177,1.114-2.181,1.772-3.069,2.014
			C79.542,222.073,79.234,222.115,78.931,222.115z M68.705,212.046l4.992,5.291c1.827,1.925,3.122,3.105,3.848,3.508
			c0.688,0.392,1.376,0.49,2.068,0.3c0.736-0.199,1.643-0.808,2.698-1.806l1.534-1.448c0.993-0.937,1.562-1.814,1.693-2.611
			c0.126-0.764-0.202-1.784-0.975-3.031c-0.109-0.178-0.079-0.408,0.072-0.551c0.152-0.141,0.383-0.157,0.553-0.039
			c1.048,0.738,1.89,1.113,2.502,1.113c0.608-0.01,1.373-0.448,2.236-1.268c1.355-1.274,2.125-2.424,2.291-3.416
			c0.168-1.007,0.012-1.935-0.476-2.835c-0.515-0.947-1.491-2.185-2.902-3.679l-4.263-4.512L68.705,212.046z M77.033,215.693
			c-0.543-0.033-1.1-0.392-1.872-1.163c-0.084-0.084-0.13-0.198-0.128-0.316c0.001-0.118,0.051-0.231,0.137-0.313l4.587-4.334
			c0.047-0.058,0.108-0.104,0.18-0.132c0.168-0.064,0.361-0.025,0.483,0.109c0.995,1.105,1.122,1.582,1.122,1.875
			c0.017,0.446-0.337,0.987-1.183,1.791l-1.546,1.46C78.077,215.368,77.511,215.693,77.033,215.693z M76.108,214.222
			c0.565,0.513,0.822,0.588,0.913,0.594c0,0,0,0,0.001,0c0.096,0,0.425-0.059,1.19-0.781l1.545-1.46
			c0.893-0.849,0.909-1.128,0.909-1.14c0-0.022-0.016-0.255-0.597-0.955L76.108,214.222z M84.179,208.961L84.179,208.961
			c-0.433,0-0.882-0.251-1.373-0.768c-0.109-0.12-0.242-0.253-0.427-0.438c-0.084-0.084-0.144-0.212-0.143-0.33
			c0.002-0.119,0.039-0.245,0.125-0.326l3.675-3.469c0.085-0.081,0.197-0.115,0.318-0.12c0.117,0.005,0.229,0.058,0.308,0.145
			c0.517,0.571,0.804,0.938,0.931,1.191c0.114,0.229,0.21,0.611,0.021,1.138c-0.14,0.387-0.493,0.845-1.051,1.365
			c-1.392,1.305-1.888,1.538-2.189,1.594C84.31,208.955,84.245,208.961,84.179,208.961z M83.29,207.429
			c0.062,0.063,0.114,0.119,0.161,0.17c0.415,0.438,0.647,0.485,0.728,0.485c0.094-0.014,0.458-0.132,1.785-1.375
			c0.598-0.558,0.773-0.88,0.825-1.022c0.068-0.188,0.075-0.338,0.021-0.447c-0.047-0.093-0.174-0.282-0.5-0.66L83.29,207.429z"/>
	</g>
	<g>
		<path fill="#002156" d="M106.717,215.813l-9.721,20.88l-5.622-3.857l2.021-3.565l-1.972-1.351l-2.64,3.14l-5.682-3.905
			l15.671-16.803L106.717,215.813z M95.535,225.852c1.181-2.313,2.701-5.123,4.563-8.445c-3.03,3.201-5.183,5.585-6.461,7.144
			L95.535,225.852z"/>
		<path fill="#FFFFFF" d="M96.996,237.13c-0.087,0-0.174-0.025-0.248-0.076l-5.622-3.856c-0.187-0.129-0.245-0.381-0.133-0.578
			l1.822-3.216l-1.312-0.897l-2.384,2.835c-0.145,0.174-0.397,0.209-0.584,0.079l-5.682-3.905c-0.105-0.072-0.174-0.187-0.188-0.313
			s0.029-0.253,0.116-0.347l15.671-16.803c0.148-0.158,0.391-0.186,0.569-0.062l7.945,5.462c0.177,0.12,0.24,0.352,0.149,0.546
			l-9.721,20.879c-0.054,0.117-0.158,0.204-0.282,0.237C97.073,237.126,97.034,237.13,96.996,237.13z M91.953,232.701l4.863,3.336
			l9.347-20.073l-7.328-5.037l-15.067,16.154l4.935,3.392l2.384-2.835c0.145-0.173,0.397-0.207,0.583-0.08l1.971,1.35
			c0.188,0.129,0.246,0.38,0.134,0.578L91.953,232.701z M95.535,226.29c-0.087,0-0.175-0.026-0.249-0.077l-1.898-1.302
			c-0.101-0.069-0.168-0.179-0.186-0.3c-0.017-0.122,0.017-0.245,0.095-0.34c1.296-1.581,3.478-3.992,6.481-7.166
			c0.153-0.162,0.401-0.184,0.579-0.053c0.178,0.132,0.231,0.375,0.123,0.568c-1.894,3.38-3.384,6.138-4.555,8.43
			c-0.058,0.113-0.16,0.194-0.283,0.226C95.607,226.285,95.571,226.29,95.535,226.29z M94.281,224.459l1.091,0.749
			c0.746-1.447,1.614-3.073,2.624-4.915C96.417,221.999,95.174,223.394,94.281,224.459z"/>
	</g>
	<g>
		<path fill="#002156" d="M121.5,230.268l-5.719-2.385l0.645-1.559c0.304-0.729,0.426-1.216,0.365-1.47
			c-0.062-0.257-0.268-0.463-0.608-0.608c-0.365-0.16-0.706-0.136-1.01,0.048c-0.305,0.182-0.572,0.561-0.791,1.096
			c-0.292,0.705-0.401,1.276-0.341,1.715c0.062,0.438,0.462,1.107,1.205,2.008c2.142,2.579,3.371,4.49,3.699,5.706
			c0.329,1.217,0.061,2.858-0.803,4.916c-0.621,1.496-1.278,2.506-1.971,3.054s-1.704,0.815-3.03,0.828
			c-1.327,0-2.75-0.304-4.247-0.926c-1.643-0.682-2.944-1.546-3.87-2.592c-0.937-1.033-1.399-2.055-1.411-3.065
			c0-1.01,0.316-2.288,0.973-3.87l0.572-1.375l5.718,2.385l-1.058,2.556c-0.329,0.791-0.462,1.327-0.39,1.619
			c0.073,0.291,0.304,0.522,0.719,0.692c0.413,0.17,0.778,0.158,1.095-0.048c0.316-0.207,0.596-0.585,0.827-1.144
			c0.512-1.229,0.657-2.118,0.438-2.666c-0.231-0.548-0.925-1.58-2.081-3.102c-1.156-1.533-1.898-2.616-2.227-3.226
			c-0.328-0.607-0.51-1.35-0.535-2.201s0.194-1.838,0.657-2.957c0.669-1.606,1.387-2.676,2.166-3.237
			c0.767-0.546,1.765-0.815,2.969-0.802c1.205,0.012,2.542,0.329,4.003,0.938c1.594,0.668,2.872,1.459,3.796,2.396
			c0.937,0.926,1.436,1.813,1.521,2.665c0.073,0.852-0.231,2.104-0.925,3.772l-0.34,0.827L121.5,230.268z"/>
		<path fill="#FFFFFF" d="M113.142,244.054c-1.397,0-2.883-0.321-4.415-0.958c-1.714-0.711-3.07-1.621-4.03-2.706
			c-0.995-1.098-1.508-2.227-1.521-3.351c0-1.092,0.329-2.413,1.007-4.045l0.572-1.374c0.044-0.108,0.13-0.192,0.237-0.237
			c0.109-0.044,0.228-0.045,0.336,0.001l5.718,2.385c0.062,0.026,0.115,0.063,0.157,0.11c-0.305-0.436-0.68-0.947-1.125-1.532
			c-1.132-1.501-1.914-2.636-2.264-3.283c-0.363-0.673-0.561-1.479-0.587-2.396c-0.026-0.91,0.207-1.967,0.69-3.138
			c0.704-1.689,1.46-2.81,2.314-3.425c0.826-0.589,1.882-0.886,3.143-0.886c1.334,0.013,2.736,0.34,4.254,0.972
			c1.674,0.702,2.999,1.54,3.94,2.492c0.994,0.983,1.549,1.97,1.646,2.93c0.081,0.942-0.233,2.244-0.957,3.984l-0.339,0.826
			c-0.025,0.062-0.064,0.117-0.114,0.161c-0.125,0.111-0.317,0.152-0.473,0.088l-5.719-2.385c-0.223-0.094-0.329-0.35-0.236-0.572
			l0.645-1.558c0.39-0.936,0.35-1.177,0.344-1.201c-0.035-0.144-0.212-0.246-0.354-0.307c-0.233-0.104-0.421-0.097-0.612,0.02
			c-0.212,0.128-0.429,0.442-0.611,0.886c-0.254,0.614-0.363,1.129-0.313,1.49c0.028,0.199,0.209,0.698,1.109,1.789
			c2.162,2.604,3.436,4.579,3.784,5.87c0.354,1.31,0.077,3.059-0.822,5.199c-0.651,1.568-1.339,2.625-2.104,3.229
			c-0.768,0.605-1.846,0.907-3.297,0.921C113.145,244.054,113.143,244.054,113.142,244.054z M105.396,232.362l-0.404,0.969
			c-0.623,1.501-0.939,2.747-0.939,3.702c0.011,0.899,0.447,1.833,1.298,2.771c0.874,0.988,2.122,1.822,3.712,2.481
			c1.424,0.593,2.795,0.892,4.076,0.893c1.231-0.012,2.16-0.259,2.76-0.734c0.635-0.5,1.254-1.469,1.838-2.878
			c0.823-1.958,1.086-3.516,0.785-4.633c-0.217-0.804-1.02-2.417-3.613-5.54c-0.814-0.986-1.227-1.693-1.302-2.228
			c-0.072-0.523,0.053-1.178,0.37-1.943c0.259-0.635,0.586-1.073,0.971-1.304c0.427-0.26,0.923-0.286,1.41-0.074
			c0.591,0.253,0.794,0.634,0.86,0.909c0.085,0.356-0.034,0.894-0.387,1.74l-0.478,1.152l4.915,2.05l0.178-0.434
			c0.66-1.586,0.961-2.787,0.894-3.567c-0.075-0.746-0.543-1.553-1.393-2.392c-0.862-0.874-2.092-1.647-3.657-2.303
			c-1.413-0.588-2.704-0.893-3.838-0.904c-0.001,0-0.002,0-0.003,0c-1.151,0-2.037,0.243-2.707,0.722
			c-0.707,0.509-1.385,1.534-2.016,3.048c-0.436,1.056-0.646,1.99-0.624,2.776c0.022,0.779,0.185,1.454,0.483,2.006
			c0.229,0.425,0.795,1.318,2.19,3.169c1.19,1.567,1.889,2.612,2.135,3.196c0.27,0.674,0.125,1.654-0.438,3.004
			c-0.261,0.63-0.594,1.082-0.991,1.342c-0.435,0.283-0.951,0.314-1.502,0.087c-0.538-0.221-0.867-0.554-0.977-0.991
			c-0.098-0.392,0.029-0.976,0.411-1.894l0.89-2.151L105.396,232.362z M111.266,233.97c0.059,0.11,0.068,0.245,0.017,0.371
			l-1.058,2.556c-0.409,0.984-0.386,1.278-0.37,1.345c0.014,0.056,0.058,0.229,0.459,0.393c0.284,0.117,0.496,0.117,0.689-0.009
			c0.243-0.159,0.472-0.485,0.661-0.944c0.578-1.387,0.557-2.035,0.437-2.335C111.979,235.056,111.7,234.595,111.266,233.97z"/>
	</g>
	<g>
		<path fill="#002156" d="M142.429,227.64l-5.634,9.394l1.85,13.019l-6.778-1.252l-0.888-10.063l-1.777,9.575l-6.558-1.216
			l4.137-22.339l6.558,1.216l-1.605,8.675l4.526-8.14l6.156,1.144L142.429,227.64z"/>
		<path fill="#FFFFFF" d="M138.645,250.49c-0.026,0-0.053-0.002-0.08-0.008l-6.778-1.252c-0.194-0.036-0.34-0.196-0.357-0.393
			l-0.605-6.865l-1.191,6.419c-0.044,0.238-0.272,0.398-0.511,0.351l-6.558-1.216c-0.238-0.044-0.395-0.272-0.351-0.511
			l4.137-22.339c0.021-0.114,0.087-0.216,0.183-0.281c0.096-0.066,0.213-0.093,0.328-0.069l6.558,1.216
			c0.238,0.044,0.395,0.272,0.351,0.511l-1.118,6.04l3.225-5.798c0.091-0.164,0.277-0.258,0.463-0.218l6.1,1.133
			c0.091,0.002,0.181,0.032,0.256,0.093c0.172,0.137,0.222,0.374,0.109,0.563l-5.554,9.261l1.828,12.864
			c0.02,0.14-0.029,0.28-0.131,0.378C138.866,250.447,138.757,250.49,138.645,250.49z M132.274,248.43l5.851,1.08l-1.764-12.414
			c-0.014-0.1,0.006-0.201,0.058-0.288l5.301-8.84l-5.23-0.971l-4.373,7.862c-0.104,0.188-0.331,0.272-0.531,0.2
			c-0.202-0.072-0.322-0.281-0.283-0.492l1.526-8.243l-5.696-1.057l-3.977,21.477l5.696,1.057l1.697-9.145
			c0.04-0.216,0.241-0.359,0.452-0.358c0.219,0.011,0.397,0.182,0.416,0.399L132.274,248.43z"/>
	</g>
	<g>
		<path fill="#002156" d="M144.278,227.542l11.122-0.182l0.073,4.55l-4.453,0.073l0.072,4.308l4.173-0.062l0.073,4.319l-4.162,0.073
			l0.086,5.001l4.891-0.072l0.073,4.551l-11.57,0.182l-0.366-22.717L144.278,227.542z"/>
		<path fill="#FFFFFF" d="M144.655,250.721c-0.239,0-0.435-0.191-0.438-0.431l-0.365-22.682c-0.012-0.099,0.007-0.201,0.059-0.285
			c0.079-0.127,0.21-0.217,0.36-0.22l11.121-0.182c0.116-0.008,0.229,0.043,0.313,0.124s0.132,0.191,0.134,0.308l0.073,4.549
			c0.004,0.242-0.188,0.442-0.431,0.445l-4.016,0.066l0.058,3.432l3.736-0.054c0.229-0.031,0.44,0.189,0.444,0.431l0.072,4.319
			c0.005,0.242-0.188,0.44-0.431,0.445l-3.724,0.065l0.071,4.126l4.453-0.066c0.248-0.039,0.441,0.189,0.445,0.431l0.073,4.551
			c0.002,0.117-0.042,0.229-0.123,0.313c-0.081,0.084-0.191,0.132-0.309,0.134l-11.57,0.181
			C144.66,250.721,144.658,250.721,144.655,250.721z M144.735,227.973l0.352,21.864l10.694-0.167l-0.059-3.675l-4.454,0.066
			c-0.225,0.033-0.44-0.189-0.444-0.431l-0.086-5.002c-0.004-0.242,0.189-0.44,0.431-0.445l3.724-0.065l-0.058-3.443l-3.735,0.054
			c-0.236-0.006-0.441-0.189-0.445-0.431l-0.072-4.307c-0.002-0.116,0.042-0.229,0.123-0.313s0.191-0.132,0.308-0.134l4.016-0.066
			l-0.059-3.673L144.735,227.973z"/>
	</g>
	<g>
		<path fill="#002156" d="M171.071,224.805l0.814,4.465l-3.894,0.718l3.273,17.874l-6.558,1.205l-3.273-17.875l-3.883,0.706
			l-0.814-4.465l14.346-2.628H171.071z"/>
		<path fill="#FFFFFF" d="M164.708,249.505c-0.089,0-0.175-0.026-0.249-0.077c-0.096-0.066-0.162-0.168-0.183-0.282l-3.194-17.443
			l-3.452,0.627c-0.233,0.05-0.467-0.113-0.509-0.353l-0.815-4.466c-0.044-0.237,0.114-0.466,0.353-0.51l14.291-2.618
			c0.257-0.07,0.54,0.115,0.564,0.382c0.001,0.012,0.001,0.022,0.002,0.033l0.801,4.394c0.044,0.237-0.113,0.466-0.352,0.509
			l-3.463,0.639l3.194,17.443c0.044,0.238-0.113,0.467-0.352,0.51l-6.558,1.205C164.76,249.503,164.734,249.505,164.708,249.505z
			 M161.436,230.753c0.207,0,0.392,0.148,0.43,0.359l3.195,17.444l5.694-1.047l-3.193-17.443c-0.045-0.238,0.112-0.467,0.352-0.51
			l3.463-0.64l-0.657-3.6l-13.472,2.468l0.657,3.603l3.452-0.627C161.383,230.755,161.409,230.753,161.436,230.753z"/>
	</g>
	<g>
		<path fill="#002156" d="M172.7,224.367l6.17-2.507c1.946-0.791,3.48-1.253,4.587-1.398c1.107-0.135,2.142,0.071,3.09,0.645
			c0.95,0.571,1.789,1.764,2.531,3.576c0.499,1.229,0.632,2.179,0.39,2.835c-0.244,0.658-0.949,1.389-2.13,2.166
			c1.545-0.292,2.715-0.219,3.479,0.244c0.78,0.449,1.448,1.373,2.009,2.738l0.791,1.946c0.571,1.423,0.815,2.554,0.729,3.381
			c-0.086,0.841-0.487,1.535-1.181,2.117c-0.705,0.573-2.299,1.377-4.782,2.387l-7.152,2.908l-8.543-21.05L172.7,224.367z
			 M180.343,225.463l1.898,4.684c0.254-0.109,0.461-0.207,0.608-0.269c0.607-0.242,0.937-0.535,0.996-0.863
			c0.061-0.328-0.169-1.118-0.668-2.373c-0.27-0.656-0.523-1.095-0.769-1.301c-0.242-0.208-0.485-0.305-0.741-0.28
			C181.425,225.085,180.975,225.218,180.343,225.463z M183.567,233.419l2.396,5.889c0.864-0.376,1.363-0.729,1.521-1.046
			c0.159-0.315,0.062-0.9-0.291-1.739l-0.804-1.959c-0.364-0.9-0.692-1.398-0.985-1.509
			C185.112,232.957,184.503,233.079,183.567,233.419z"/>
		<path fill="#FFFFFF" d="M181.231,245.843c-0.059,0-0.116-0.011-0.171-0.033c-0.107-0.047-0.192-0.132-0.235-0.24l-8.543-21.049
			c-0.078-0.193-0.01-0.416,0.164-0.531c0.059-0.038,0.124-0.062,0.19-0.069l6.068-2.466c1.955-0.795,3.535-1.274,4.695-1.427
			c1.235-0.152,2.355,0.089,3.373,0.703c1.036,0.624,1.923,1.862,2.711,3.787c0.55,1.353,0.679,2.384,0.396,3.152
			c-0.17,0.455-0.515,0.925-1.03,1.403c0.896-0.022,1.639,0.142,2.195,0.479c0.847,0.487,1.585,1.48,2.187,2.946l0.792,1.948
			c0.605,1.509,0.854,2.683,0.76,3.591c-0.096,0.934-0.544,1.744-1.335,2.408c-0.762,0.619-2.408,1.444-4.899,2.457l-7.153,2.907
			C181.344,245.832,181.287,245.843,181.231,245.843z M173.266,224.611l8.207,20.222l6.747-2.742
			c3.002-1.221,4.196-1.936,4.671-2.32c0.612-0.516,0.948-1.112,1.02-1.821c0.078-0.754-0.157-1.821-0.699-3.174l-0.791-1.945
			c-0.526-1.28-1.139-2.129-1.821-2.522c-0.666-0.404-1.74-0.465-3.18-0.193c-0.203,0.035-0.409-0.073-0.486-0.266
			c-0.08-0.194-0.01-0.416,0.164-0.531c1.352-0.89,1.813-1.553,1.961-1.952c0.197-0.538,0.065-1.409-0.386-2.518
			c-0.703-1.717-1.494-2.85-2.351-3.366c-0.85-0.513-1.799-0.711-2.812-0.584c-1.082,0.142-2.588,0.603-4.475,1.369L173.266,224.611
			z M185.963,239.746c-0.057,0-0.112-0.011-0.166-0.032c-0.108-0.044-0.196-0.132-0.24-0.241l-2.396-5.889
			c-0.045-0.109-0.044-0.234,0.005-0.343c0.048-0.109,0.14-0.193,0.252-0.234c1.086-0.394,1.713-0.505,2.125-0.369
			c0.445,0.169,0.826,0.709,1.252,1.761l0.804,1.958c0.414,0.985,0.503,1.655,0.276,2.103c-0.214,0.43-0.766,0.828-1.737,1.251
			C186.082,239.734,186.022,239.746,185.963,239.746z M184.147,233.684l2.048,5.032c0.7-0.35,0.861-0.58,0.896-0.649
			c0.016-0.032,0.137-0.327-0.304-1.373l-0.805-1.963c-0.442-1.093-0.7-1.249-0.731-1.265l0,0
			C185.238,233.466,184.906,233.438,184.147,233.684z M182.241,230.585c-0.057,0-0.113-0.011-0.167-0.032
			c-0.108-0.045-0.195-0.132-0.239-0.241l-1.898-4.684c-0.044-0.108-0.043-0.231,0.004-0.339c0.046-0.107,0.134-0.192,0.244-0.235
			c0.661-0.256,1.146-0.4,1.44-0.43c0.015-0.001,0.107-0.006,0.121-0.006c0.327,0,0.646,0.131,0.949,0.389
			c0.298,0.252,0.581,0.72,0.889,1.469c0.707,1.778,0.75,2.31,0.692,2.619c-0.089,0.491-0.515,0.892-1.265,1.19l-0.597,0.264
			C182.359,230.573,182.3,230.585,182.241,230.585z M180.919,225.717l1.559,3.846l0.203-0.089c0.637-0.254,0.723-0.476,0.734-0.538
			c0.015-0.082,0.013-0.478-0.645-2.132c-0.319-0.778-0.54-1.041-0.644-1.128c-0.143-0.123-0.266-0.181-0.381-0.181v-0.438
			l-0.035,0.44C181.633,225.504,181.414,225.542,180.919,225.717z"/>
	</g>
	<g>
		<path fill="#002156" d="M198.813,210.726l15.963,16.609l-5.633,3.846l-2.592-3.176l-1.971,1.35l1.971,3.603l-5.695,3.894
			l-10.001-20.686l7.97-5.439H198.813z M204.13,224.78c-1.729-1.934-3.809-4.367-6.218-7.313c1.887,3.979,3.334,6.838,4.319,8.603
			L204.13,224.78z"/>
		<path fill="#FFFFFF" d="M200.855,237.289c-0.038,0-0.075-0.005-0.113-0.015c-0.123-0.033-0.226-0.118-0.282-0.233l-10-20.685
			c-0.095-0.195-0.032-0.431,0.147-0.553l7.898-5.391c0.177-0.176,0.513-0.147,0.664,0.052l15.922,16.566
			c0.089,0.093,0.134,0.221,0.12,0.349s-0.082,0.244-0.189,0.316l-5.633,3.846c-0.185,0.129-0.441,0.094-0.587-0.084l-2.336-2.863
			l-1.312,0.897l1.78,3.254c0.108,0.197,0.049,0.445-0.137,0.572l-5.695,3.894C201.029,237.263,200.943,237.289,200.855,237.289z
			 M191.413,216.314l9.615,19.887l4.947-3.383l-1.78-3.253c-0.108-0.197-0.049-0.445,0.137-0.572l1.972-1.35
			c0.188-0.128,0.442-0.093,0.587,0.084l2.338,2.864l4.872-3.327l-15.343-15.963L191.413,216.314z M202.231,226.509
			c-0.033,0-0.066-0.004-0.101-0.012c-0.119-0.027-0.222-0.105-0.282-0.213c-1.046-1.873-2.545-4.856-4.333-8.628
			c-0.095-0.2-0.025-0.44,0.161-0.559c0.188-0.118,0.434-0.08,0.574,0.093c2.275,2.781,4.364,5.237,6.205,7.298
			c0.085,0.095,0.124,0.221,0.109,0.346c-0.016,0.125-0.085,0.238-0.189,0.31l-1.897,1.29
			C202.405,226.483,202.319,226.509,202.231,226.509z M199.863,220.511c0.983,2.01,1.837,3.677,2.52,4.928l1.087-0.74
			C202.35,223.437,201.143,222.036,199.863,220.511z"/>
	</g>
	<g>
		<path fill="#002156" d="M207.657,202.672l12.788,12.921l2.885-2.859l3.2,3.237l-7.631,7.544l-15.974-16.146l4.745-4.696H207.657z"
			/>
		<path fill="#FFFFFF" d="M218.899,223.953c-0.113,0-0.226-0.044-0.312-0.13l-15.974-16.146c-0.17-0.173-0.169-0.45,0.003-0.62
			l4.673-4.625c0.154-0.236,0.554-0.247,0.725-0.021l12.434,12.561l2.573-2.549c0.082-0.082,0.192-0.127,0.309-0.127
			c0.001,0,0.002,0,0.002,0c0.117,0.001,0.229,0.047,0.311,0.13l3.199,3.237c0.171,0.172,0.169,0.45-0.004,0.62l-7.63,7.544
			C219.123,223.91,219.011,223.953,218.899,223.953z M203.546,207.371l15.357,15.523l7.007-6.927l-2.583-2.613l-2.573,2.55
			c-0.082,0.082-0.192,0.127-0.309,0.127c-0.001,0-0.002,0-0.002,0c-0.116,0-0.228-0.047-0.309-0.13l-12.475-12.603L203.546,207.371
			z"/>
	</g>
	<g>
		<path fill="#002156" d="M215.884,192.658l14.673,10.72l2.398-3.273l3.673,2.678l-6.326,8.663l-18.348-13.397L215.884,192.658z"/>
		<path fill="#FFFFFF" d="M230.302,211.883c-0.09,0-0.18-0.027-0.259-0.083l-18.348-13.397c-0.195-0.144-0.238-0.418-0.096-0.613
			l3.93-5.39c0.068-0.094,0.172-0.156,0.287-0.174c0.114-0.021,0.231,0.01,0.326,0.079l14.319,10.461l2.14-2.92
			c0.144-0.197,0.419-0.236,0.611-0.096l3.673,2.678c0.096,0.068,0.158,0.172,0.176,0.286c0.018,0.115-0.011,0.232-0.079,0.326
			l-6.326,8.663C230.57,211.82,230.437,211.883,230.302,211.883z M212.566,197.951l17.64,12.882l5.81-7.955l-2.966-2.161
			l-2.139,2.92c-0.145,0.197-0.418,0.238-0.612,0.096l-14.319-10.461L212.566,197.951z"/>
	</g>
</g>
<radialGradient id="SVGID_1_" cx="149.7051" cy="124.46" r="135.0459" gradientTransform="matrix(1 0 0 0.9278 0 8.988)" gradientUnits="userSpaceOnUse">
	<stop  offset="0.6129" style="stop-color:#002156;stop-opacity:0"/>
	<stop  offset="1" style="stop-color:#002156;stop-opacity:0.8"/>
</radialGradient>
<circle opacity="0.2" fill="url(#SVGID_1_)" cx="149.038" cy="147.127" r="135.034"/>
<radialGradient id="SVGID_2_" cx="147.7051" cy="51.1265" r="135.0459" gradientTransform="matrix(1 0 0 0.6612 0 17.3212)" gradientUnits="userSpaceOnUse">
	<stop  offset="0" style="stop-color:#FFFFFF;stop-opacity:0.8"/>
	<stop  offset="1" style="stop-color:#FFFFFF;stop-opacity:0"/>
</radialGradient>
<circle opacity="0.3" fill="url(#SVGID_2_)" cx="149.038" cy="147.127" r="135.034"/>
<radialGradient id="SVGID_3_" cx="145.4746" cy="234.9443" r="326.0258" gradientTransform="matrix(0.7921 0 0 0.3093 30.9784 186.7079)" gradientUnits="userSpaceOnUse">
	<stop  offset="0" style="stop-color:#FFFFFF;stop-opacity:0.8"/>
	<stop  offset="1" style="stop-color:#FFFFFF;stop-opacity:0"/>
</radialGradient>
<path opacity="0.3" fill="url(#SVGID_3_)" d="M66.352,222.816c5.123-26.963,46.294-46.369,91.96-43.346
	c45.666,3.025,78.533,27.334,73.411,54.298c-5.123,26.963-46.295,46.369-91.961,43.344
	C94.097,274.088,61.229,249.779,66.352,222.816z"/>
</svg>
